PathFileType	4	(X/Y/Z)	Kaydara																																																																																																																									
DataRate	CameraRate	NumFrames	NumMarkers	Units	OrigDataRate	OrigDataStartFrame	OrigNumFrames																																																																																																																					
30	30	6	41	mm	30	128	300																																																																																																																					
Frame#	Time	PAIB_LFHD			PAIB_RFHD			PAIB_LBHD			PAIB_RBHD			PAIB_LFTShould			PAIB_RFTShould			PAIB_LRRShould			PAIB_RRRShould			PAIB_T10			PAIB_STRN			PAIB_TRUN			PAIB_LSHO			PAIB_LUPA			PAIB_LELB			PAIB_LFRM			PAIB_LWRA			PAIB_LWRB			PAIB_LFIN			PAIB_RSHO			PAIB_RUPA			PAIB_RELB			PAIB_RFRM			PAIB_RWRA			PAIB_RWRB			PAIB_RFIN			PAIB_LFWT			PAIB_RFWT			PAIB_LBWT			PAIB_RBWT			PAIB_LTHI			PAIB_LKNE			PAIB_LSHN			PAIB_LANK			PAIB_LHEE			PAIB_LTOE			PAIB_RTHI			PAIB_RKNE			PAIB_RSHN			PAIB_RANK			PAIB_RHEE			PAIB_RTOE		
		X1	Y1	Z1	X2	Y2	Z2	X3	Y3	Z3	X4	Y4	Z4	X5	Y5	Z5	X6	Y6	Z6	X7	Y7	Z7	X8	Y8	Z8	X9	Y9	Z9	X10	Y10	Z10	X11	Y11	Z11	X12	Y12	Z12	X13	Y13	Z13	X14	Y14	Z14	X15	Y15	Z15	X16	Y16	Z16	X17	Y17	Z17	X18	Y18	Z18	X19	Y19	Z19	X20	Y20	Z20	X21	Y21	Z21	X22	Y22	Z22	X23	Y23	Z23	X24	Y24	Z24	X25	Y25	Z25	X26	Y26	Z26	X27	Y27	Z27	X28	Y28	Z28	X29	Y29	Z29	X30	Y30	Z30	X31	Y31	Z31	X32	Y32	Z32	X33	Y33	Z33	X34	Y34	Z34	X35	Y35	Z35	X36	Y36	Z36	X37	Y37	Z37	X38	Y38	Z38	X39	Y39	Z39	X40	Y40	Z40	X41	Y41	Z41
																																																																																																																												
113	4.233	325.24937	1598.14072	-894.59251	142.08048	1614.97772	-908.49266	345.73677	1631.76834	-1017.68997	143.60225	1654.99588	-1016.92879	288.23015	1384.07867	-1013.15819	168.14007	1385.10559	-1021.24023	310.3009	1480.27573	-1133.6438	155.69139	1483.71002	-1134.83948	234.27074	1346.37421	-1251.05759	231.27115	1312.85828	-996.68854	226.39278	1208.71819	-998.2399	420.41893	1411.83502	-1067.46696	464.85214	1184.97673	-1057.88666	485.41973	1095.48286	-1088.42789	490.25543	987.57706	-1026.41418	413.75782	894.82056	-927.73621	458.6824	862.22206	-987.04666	462.01721	838.8903	-917.63382	44.30959	1406.36292	-1073.59161	-23.81473	1245.35881	-1143.41797	-49.11745	1131.37077	-1171.01418	-64.6516	992.40791	-1144.13788	-2.4826	888.00018	-1047.20909	-69.37253	873.08113	-1096.40938	-61.27222	838.17406	-1030.98007	331.44314	959.13757	-1053.7793	94.92154	968.49617	-1057.98378	270.315	1014.76868	-1272.09419	126.90257	1011.54785	-1272.36572	307.79379	737.57904	-1268.8765	328.50487	485.34126	-1174.66064	287.39349	299.85008	-1165.53711	269.85033	115.2818	-1250.68489	213.62947	110.37667	-1299.14734	249.90004	64.04302	-1076.25519	58.18094	697.71942	-1206.45294	47.04001	482.61135	-1069.46693	101.15201	298.6935	-1091.78635	69.84138	125.04076	-1225.91995	138.89794	139.22229	-1268.17238	75.47423	80.29696	-1065.23087
114	4.267	324.08566	1597.50717	-878.76778	140.8074	1613.33939	-892.45117	344.26613	1631.05301	-1001.98738	141.98386	1653.18375	-1000.92445	287.65684	1382.71149	-997.26166	167.82536	1383.36838	-1005.28961	309.43977	1479.39911	-1117.57355	154.77818	1482.17087	-1118.65013	233.88138	1345.35995	-1235.0853	231.30526	1311.27472	-980.98213	226.59237	1207.16919	-982.63741	419.77139	1411.26892	-1051.71288	464.44675	1184.29085	-1042.84241	485.12745	1094.90891	-1073.69461	489.02699	986.94687	-1011.29654	411.4394	895.08743	-912.4736	456.40835	861.89751	-971.55136	459.26037	838.85567	-902.0536	43.80769	1404.15527	-1057.52304	-23.75688	1243.1498	-1127.97272	-48.79123	1129.2469	-1156.06628	-64.28919	990.19127	-1130.24483	-2.21004	884.92928	-1034.30458	-69.167	870.49339	-1083.56087	-60.94354	834.76021	-1018.57765	332.18597	957.40517	-1039.10347	95.98119	968.30116	-1041.82739	269.39144	1013.53973	-1256.9873	126.00798	1010.26627	-1256.49086	306.28817	738.07701	-1256.97563	327.47997	484.52099	-1166.99966	286.59719	298.91666	-1160.56877	269.09887	115.65038	-1249.29619	212.88845	111.38522	-1297.72675	249.82929	63.75698	-1075.70831	58.14585	696.53648	-1184.66393	49.2119	484.44244	-1039.69849	102.20942	298.9163	-1043.54752	69.80927	112.43764	-1158.74565	138.13064	122.68005	-1202.12418	76.23264	79.75954	-994.27841
115	4.3	322.41421	1596.64886	-862.3735	138.91991	1611.54877	-875.9597	342.29801	1630.00992	-985.5735	139.90484	1651.23322	-984.5295	286.96573	1381.30463	-980.86365	166.70717	1381.36246	-989.12064	308.13717	1478.23074	-1101.08482	153.56684	1480.35004	-1102.17361	232.8388	1344.07028	-1218.6792	230.54016	1309.75708	-964.66476	226.28736	1205.50316	-966.65802	418.79417	1409.97757	-1035.3933	463.96519	1183.06015	-1028.43063	484.35841	1093.85483	-1059.77539	487.51785	985.4789	-997.79427	409.2622	893.72734	-900.13168	453.95309	860.52597	-958.57834	456.47968	837.22572	-889.1729	42.63791	1401.86203	-1041.13548	-24.12725	1240.8828	-1112.56607	-48.6238	1126.97365	-1141.08803	-63.99424	987.8138	-1116.42593	-2.16619	881.74515	-1021.23817	-68.8531	867.63924	-1070.89859	-60.79953	831.35368	-1006.26671	332.5565	955.50491	-1023.81851	96.34166	967.47208	-1024.97841	268.17633	1012.14561	-1241.12	124.79593	1008.86887	-1239.7715	304.617	738.64677	-1244.4252	326.38435	483.94535	-1158.94371	286.01954	297.96917	-1156.29196	268.43121	116.22752	-1248.10837	212.2587	112.63011	-1296.40945	250.0148	63.67687	-1075.60463	58.04779	695.37834	-1163.88596	50.81374	485.58689	-1013.23555	103.19708	300.82806	-996.31027	71.19969	103.01144	-1090.93529	139.59909	109.85321	-1134.17198	77.47054	78.7664	-923.17039
116	4.333	319.94894	1595.60608	-845.41618	136.43197	1609.60022	-859.27147	339.82079	1628.80615	-968.73245	137.44351	1649.26178	-967.81372	285.31994	1379.71405	-963.93692	165.27403	1379.40247	-971.92451	306.16909	1476.80893	-1084.28711	151.52685	1478.57483	-1084.75334	230.97372	1342.45819	-1201.70731	229.66736	1307.99957	-947.83203	225.5294	1203.74855	-949.76601	417.33997	1408.55042	-1019.16222	462.696	1181.55556	-1013.98132	482.97966	1092.53288	-1046.1348	485.66681	983.47023	-985.31021	406.59653	890.6591	-889.31129	451.69304	858.16505	-947.73941	453.56098	834.01276	-878.58086	40.8651	1399.57626	-1024.10973	-25.08508	1238.51158	-1096.71669	-48.75835	1124.56245	-1125.73807	-63.88864	985.25505	-1102.313	-2.29037	878.47153	-1007.82166	-69.25	865.00923	-1058.35289	-60.84912	827.78168	-993.5743	332.47353	953.27606	-1007.85316	96.21042	965.59891	-1007.38342	266.56393	1010.55656	-1224.44679	123.25588	1007.29935	-1222.45193	302.93528	739.37439	-1231.52817	325.94711	483.2547	-1151.8528	285.55576	297.09257	-1151.95457	267.87437	116.98275	-1246.99013	211.52929	113.99305	-1295.19913	250.13359	63.56398	-1075.30891	57.43816	693.93044	-1144.37424	51.45173	485.06367	-990.83862	102.84894	303.95515	-952.53166	73.53207	96.63941	-1024.39751	141.8832	101.2618	-1066.71547	77.69013	78.6545	-853.38676
117	4.367	317.10354	1594.34738	-828.05885	133.51649	1607.70584	-842.13387	336.91063	1627.34055	-951.47217	134.36493	1647.08267	-951.02615	283.56743	1378.08578	-946.49773	163.30315	1377.23312	-954.18015	303.56199	1475.03967	-1066.9355	148.95694	1476.30997	-1066.93329	228.38633	1340.4924	-1184.0963	228.08167	1306.01257	-930.11459	224.38883	1201.84517	-932.16751	415.25101	1406.74988	-1002.46742	460.61081	1179.58031	-999.54422	480.98572	1091.01868	-1032.76894	483.49396	980.95703	-973.80875	403.80775	886.08398	-880.12512	449.58309	854.84077	-938.80798	450.82199	829.37401	-870.1088	38.529	1396.88354	-1006.26671	-26.59796	1235.83481	-1080.00282	-49.54031	1121.87172	-1109.57901	-64.24228	982.33505	-1087.23961	-2.61896	874.96536	-993.59947	-69.30701	861.56166	-1044.26437	-61.04973	823.76846	-980.03349	332.04906	950.9465	-991.25282	95.91294	962.88338	-989.12811	264.49203	1008.84026	-1206.89545	121.2873	1005.39459	-1204.09645	301.03365	739.99435	-1217.94571	325.39215	482.74971	-1144.50661	285.27346	296.54259	-1147.5489	267.20112	118.01623	-1245.72182	210.66599	115.72619	-1293.72238	250.20271	63.40041	-1074.93141	56.73944	691.70593	-1126.05186	51.13803	482.99591	-971.78345	102.93388	308.31751	-913.02094	75.70571	94.34091	-961.12572	144.14039	96.84507	-1003.43285	79.32364	80.74632	-787.28912
118	4.4	313.84212	1592.86346	-810.33699	130.13395	1605.5751	-824.50394	333.38341	1625.57526	-933.97156	130.83715	1644.57062	-933.52333	281.17239	1376.00174	-928.41591	160.87934	1374.62006	-935.76027	300.38168	1472.92068	-1049.15688	145.76198	1473.67401	-1048.42957	225.1095	1337.98538	-1165.88058	225.94713	1303.76999	-911.80229	222.73125	1199.54613	-913.73276	412.66106	1404.64294	-985.13069	457.75959	1177.14561	-984.88052	478.11874	1089.13467	-1019.56093	480.98412	977.89063	-963.19427	401.36566	880.26733	-872.42752	447.66106	850.7663	-931.58485	448.53489	823.50876	-863.5585	35.76815	1393.85361	-987.60544	-28.77737	1232.70737	-1062.1077	-51.14575	1118.6969	-1092.00233	-65.45668	979.10019	-1070.80887	-3.35009	870.98816	-978.19427	-69.99961	857.78923	-1028.64159	-61.5224	819.38034	-965.10262	331.33766	948.41278	-973.78342	94.91133	959.48013	-969.68727	261.79317	1006.98883	-1188.07663	118.64398	1002.92778	-1184.37584	298.49005	740.86304	-1203.57643	324.175	482.56149	-1136.21414	284.80846	296.41308	-1143.09959	266.12873	119.45428	-1244.50661	209.23119	117.85862	-1292.04361	250.50396	63.28853	-1074.63821	56.29176	688.31383	-1108.41225	50.87911	479.23889	-954.6627	103.42739	312.06051	-878.806	77.86694	94.1698	-906.01578	145.63588	93.44103	-949.16595	83.86032	93.69452	-730.19844
